<?xml version="1.0" standalone="no"?>
<!DOCTYPE svg PUBLIC "-//W3C//DTD SVG 20010904//EN"
 "http://www.w3.org/TR/2001/REC-SVG-20010904/DTD/svg10.dtd">
<svg version="1.0" xmlns="http://www.w3.org/2000/svg"
 width="260.000000pt" height="260.000000pt" viewBox="0 0 260.000000 260.000000"
 preserveAspectRatio="xMidYMid meet">
<metadata>
Created by potrace 1.14, written by Peter Selinger 2001-2017
</metadata>
<g transform="translate(0.000000,260.000000) scale(0.100000,-0.100000)"
fill="#000000" stroke="none">
<path d="M721 2234 l-21 -36 45 -80 c25 -44 45 -83 45 -87 0 -3 -30 -6 -66 -6
-66 0 -66 0 -88 -37 -18 -31 -19 -40 -8 -55 7 -10 15 -26 19 -36 5 -15 18 -17
116 -15 l110 2 25 -32 25 -32 -24 -1 c-35 -2 -83 -6 -94 -8 -6 0 -19 -16 -29
-35 -18 -34 -18 -35 3 -70 20 -31 27 -35 70 -38 l49 -3 -61 -104 -60 -103 -25
41 c-13 23 -28 42 -33 42 -59 9 -75 4 -96 -30 l-21 -35 29 -53 30 -53 -41 0
c-29 0 -42 5 -47 18 -6 15 -91 162 -99 171 -11 11 -75 6 -88 -8 -38 -45 -39
-58 -2 -121 l35 -60 -99 0 -100 0 -19 -38 c-19 -37 -19 -38 0 -75 l19 -37 100
0 99 0 -35 -60 -35 -60 23 -38 c23 -37 35 -41 101 -33 4 1 11 9 15 19 4 10 27
53 51 95 43 75 46 77 83 77 l38 0 -29 -52 -30 -53 22 -35 c19 -31 27 -35 61
-35 35 1 42 5 66 44 l27 43 61 -106 c66 -115 67 -111 -9 -106 -21 1 -32 -7
-49 -35 -22 -36 -22 -37 -4 -71 21 -39 31 -43 95 -41 l47 2 -15 -28 c-19 -37
-25 -39 -145 -40 l-103 -2 -19 -36 c-19 -36 -19 -36 2 -70 21 -34 22 -35 87
-34 36 1 65 -3 65 -8 0 -5 -20 -43 -45 -84 l-45 -74 20 -39 c19 -37 23 -40 64
-40 l44 0 49 85 49 85 35 -60 34 -60 45 2 c38 3 47 7 63 36 l19 33 -56 94 -56
94 17 36 17 35 32 -52 c30 -49 35 -52 73 -53 36 -1 42 3 61 37 l21 38 -20 34
c-12 18 -21 38 -21 43 0 7 194 11 233 4 4 0 -4 -19 -19 -40 l-25 -39 19 -39
c21 -40 22 -40 100 -34 7 1 16 9 20 19 4 9 16 32 26 49 l20 32 18 -30 c21 -35
22 -34 -50 -155 l-43 -72 17 -36 c17 -34 21 -36 63 -36 46 0 46 1 80 60 l35
60 49 -85 49 -85 44 0 c41 0 45 3 64 39 l20 40 -45 76 c-25 41 -45 79 -45 83
0 4 29 7 65 7 65 -1 66 -1 87 33 21 35 21 35 2 71 l-19 36 -101 1 c-118 1
-128 4 -147 41 l-15 28 59 0 c58 -1 60 0 80 35 l21 35 -20 35 c-17 30 -25 35
-61 37 -23 0 -45 2 -50 2 -6 1 6 29 26 63 20 35 47 83 61 106 l25 44 28 -45
c27 -44 39 -49 101 -38 3 0 15 16 27 33 l20 33 -30 52 -29 53 38 0 c37 0 38
-1 94 -97 59 -104 53 -99 127 -94 19 1 48 55 43 79 -2 7 -16 35 -32 62 l-29
50 97 0 97 0 23 35 22 35 -20 40 -20 40 -100 0 -99 0 35 60 c33 56 34 61 20
88 -23 44 -47 54 -107 43 -3 -1 -30 -44 -58 -96 -53 -95 -53 -95 -92 -95 l-39
0 29 53 30 52 -20 33 c-12 17 -24 33 -27 33 -24 5 -82 4 -82 -1 0 -3 -11 -22
-24 -44 l-23 -38 -61 106 c-66 115 -67 111 9 106 21 -1 32 7 49 35 22 36 22
37 4 70 -19 36 -42 45 -105 41 l-37 -2 16 33 c12 24 23 33 41 34 14 0 66 1
116 2 l90 2 19 36 c19 36 19 36 -2 70 -20 33 -22 34 -86 34 -36 0 -66 3 -66 8
0 4 20 42 44 84 l45 76 -20 38 c-18 36 -22 39 -63 39 l-44 0 -49 -85 -49 -85
-35 60 -34 60 -45 -2 c-38 -3 -47 -7 -63 -36 l-19 -32 43 -73 c72 -121 72
-122 53 -152 -21 -32 -26 -31 -42 3 -27 59 -42 68 -108 63 -13 0 -27 -14 -37
-37 -17 -35 -17 -37 3 -71 11 -19 20 -38 20 -42 0 -5 -52 -8 -115 -7 -63 0
-115 5 -115 10 0 5 9 24 21 42 l20 34 -21 38 c-20 35 -25 38 -62 37 -37 -1
-42 -5 -72 -53 l-32 -52 -17 35 -17 36 56 94 56 94 -19 33 c-16 29 -25 33 -64
36 l-45 3 -34 -61 -34 -60 -49 85 -49 85 -43 0 c-39 0 -45 -4 -64 -36z"/>
</g>
</svg>
